<mxfile host="app.diagrams.net" modified="2024-04-15T19:59:21.192Z" agent="Mozilla/5.0 (Macintosh; Intel Mac OS X 10_15_7) AppleWebKit/537.36 (KHTML, like Gecko) Chrome/123.0.0.0 Safari/537.36" version="24.2.5" etag="N9BzLpIeBcOQWwGmMkoa" type="github">
  <diagram name="Page-1" id="QjfrHM0rZTym1WhQc6d0">
    <mxGraphModel>
      <root>
        <mxCell id="0" />
        <mxCell id="1" parent="0" />
      </root>
    </mxGraphModel>
  </diagram>
</mxfile>
